<svg width="512" height="512" viewBox="0 0 512 512" fill="none" xmlns="http://www.w3.org/2000/svg">
  <defs>
    <linearGradient id="bg" x1="64" y1="42" x2="448" y2="470" gradientUnits="userSpaceOnUse">
      <stop stop-color="#171C28"/>
      <stop offset="1" stop-color="#0B0D12"/>
    </linearGradient>
    <linearGradient id="amber" x1="141" y1="110" x2="388" y2="395" gradientUnits="userSpaceOnUse">
      <stop stop-color="#FFC56E"/>
      <stop offset="0.54" stop-color="#FFB454"/>
      <stop offset="1" stop-color="#E89324"/>
    </linearGradient>
  </defs>
  <rect x="24" y="24" width="464" height="464" rx="112" fill="url(#bg)"/>
  <rect x="25" y="25" width="462" height="462" rx="111" stroke="#303A4F" stroke-width="2"/>
  <path d="M141 184C141 157.49 162.49 136 189 136H323C349.51 136 371 157.49 371 184V328C371 354.51 349.51 376 323 376H189C162.49 376 141 354.51 141 328V184Z" fill="url(#amber)"/>
  <path d="M190 222L232 256L190 290" stroke="#1D1503" stroke-width="24" stroke-linecap="round" stroke-linejoin="round"/>
  <path d="M258 300H326" stroke="#1D1503" stroke-width="24" stroke-linecap="round"/>
  <circle cx="382" cy="142" r="18" fill="#4FE0A6"/>
</svg>
