<svg width="1280" height="640" viewBox="0 0 1280 640" fill="none" xmlns="http://www.w3.org/2000/svg" role="img" aria-labelledby="title desc">
  <title id="title">Telegram Dev Hub preview</title>
  <desc id="desc">Preview image showing a dark Telegram Mini App marketplace dashboard.</desc>
  <defs>
    <linearGradient id="page" x1="0" y1="0" x2="1280" y2="640" gradientUnits="userSpaceOnUse">
      <stop stop-color="#0B0D12"/>
      <stop offset="1" stop-color="#111827"/>
    </linearGradient>
    <linearGradient id="amber" x1="0" y1="0" x2="180" y2="180" gradientUnits="userSpaceOnUse">
      <stop stop-color="#FFC56E"/>
      <stop offset="1" stop-color="#E89324"/>
    </linearGradient>
    <filter id="shadow" x="-20%" y="-20%" width="140%" height="140%" color-interpolation-filters="sRGB">
      <feDropShadow dx="0" dy="28" stdDeviation="26" flood-color="#000000" flood-opacity="0.42"/>
    </filter>
    <style>
      .title {
        font-family: Inter, Arial, sans-serif;
        font-size: 48px;
        font-weight: 800;
        fill: #EEF1F7;
      }
      .subtitle {
        font-family: Inter, Arial, sans-serif;
        font-size: 22px;
        font-weight: 500;
        fill: #969DB1;
      }
      .mono {
        font-family: Consolas, "JetBrains Mono", monospace;
        font-size: 17px;
        font-weight: 700;
        fill: #FFB454;
      }
      .label {
        font-family: Inter, Arial, sans-serif;
        font-size: 15px;
        font-weight: 700;
        fill: #EEF1F7;
      }
      .muted {
        font-family: Inter, Arial, sans-serif;
        font-size: 14px;
        font-weight: 500;
        fill: #969DB1;
      }
      .tiny {
        font-family: Consolas, "JetBrains Mono", monospace;
        font-size: 11px;
        font-weight: 700;
        fill: #0B0D12;
      }
    </style>
  </defs>
  <rect width="1280" height="640" fill="url(#page)"/>
  <circle cx="1010" cy="102" r="260" fill="#FFB454" opacity="0.09"/>
  <circle cx="210" cy="556" r="230" fill="#7CB7FF" opacity="0.08"/>

  <g transform="translate(76 78)">
    <rect x="0" y="0" width="108" height="108" rx="28" fill="url(#amber)"/>
    <path d="M31 44L50 59L31 74" stroke="#1D1503" stroke-width="10" stroke-linecap="round" stroke-linejoin="round"/>
    <path d="M63 78H91" stroke="#1D1503" stroke-width="10" stroke-linecap="round"/>
  </g>

  <text class="mono" x="76" y="242">TELEGRAM MINI APP MARKETPLACE</text>
  <text class="title" x="76" y="316">Telegram Dev Hub</text>
  <text class="subtitle" x="78" y="360">Sell scripts and source code with Telegram Stars.</text>
  <text class="subtitle" x="78" y="396">Admin panel, author profiles and versioned files.</text>

  <g transform="translate(76 448)">
    <rect width="136" height="42" rx="12" fill="#FFB454"/>
    <text class="tiny" x="24" y="27">Stars only</text>
    <rect x="150" width="150" height="42" rx="12" fill="#171C28" stroke="#303A4F"/>
    <text class="muted" x="172" y="27">Saved purchases</text>
    <rect x="316" width="140" height="42" rx="12" fill="#171C28" stroke="#303A4F"/>
    <text class="muted" x="339" y="27">Autoarchive</text>
  </g>

  <g transform="translate(594 68)" filter="url(#shadow)">
    <rect width="570" height="504" rx="34" fill="#121620" stroke="#303A4F"/>
    <rect x="26" y="24" width="518" height="56" rx="18" fill="#171C28" stroke="#232A39"/>
    <circle cx="58" cy="52" r="16" fill="#FFB454"/>
    <text class="label" x="88" y="58">Dev Hub</text>
    <text class="muted" x="384" y="58">3 projects</text>

    <g transform="translate(26 104)">
      <rect width="160" height="36" rx="12" fill="#FFB454"/>
      <text class="tiny" x="42" y="23">Catalog</text>
      <rect x="174" width="102" height="36" rx="12" fill="#1D2433"/>
      <text class="muted" x="204" y="23">Top</text>
      <rect x="290" width="124" height="36" rx="12" fill="#1D2433"/>
      <text class="muted" x="319" y="23">Saved</text>
    </g>

    <g transform="translate(26 164)">
      <rect width="518" height="100" rx="18" fill="#171C28" stroke="#303A4F"/>
      <rect x="18" y="18" width="64" height="64" rx="15" fill="#1D2433"/>
      <path d="M39 45L51 53L39 61" stroke="#FFB454" stroke-width="6" stroke-linecap="round" stroke-linejoin="round"/>
      <path d="M61 65H78" stroke="#FFB454" stroke-width="6" stroke-linecap="round"/>
      <text class="label" x="104" y="38">Telegram Parser Kit</text>
      <text class="muted" x="104" y="64">Python, Node.js, API, automation</text>
      <rect x="382" y="24" width="108" height="30" rx="10" fill="#FFB454"/>
      <text class="tiny" x="403" y="44">990 Stars</text>
      <text class="mono" x="104" y="88">v1.3.0 · 128 downloads</text>
    </g>

    <g transform="translate(26 282)">
      <rect width="518" height="100" rx="18" fill="#171C28" stroke="#303A4F"/>
      <rect x="18" y="18" width="64" height="64" rx="15" fill="#1D2433"/>
      <circle cx="50" cy="50" r="21" fill="#4FE0A6"/>
      <text class="label" x="104" y="38">AI Bot Starter</text>
      <text class="muted" x="104" y="64">Telegram Bot, Frontend, Backend</text>
      <rect x="382" y="24" width="108" height="30" rx="10" fill="#4FE0A6"/>
      <text class="tiny" x="408" y="44">Owned</text>
      <text class="mono" x="104" y="88">future versions unlocked</text>
    </g>

    <g transform="translate(26 400)">
      <rect width="518" height="72" rx="18" fill="#171C28" stroke="#303A4F"/>
      <text class="label" x="22" y="32">Admin moderation</text>
      <text class="muted" x="22" y="55">Review checklist, author messages, reports and badges</text>
      <rect x="390" y="20" width="100" height="32" rx="10" fill="#1D2433" stroke="#FFB454"/>
      <text class="mono" x="410" y="41">trusted</text>
    </g>
  </g>
</svg>
